<svg width="567" height="372" viewBox="0 0 567 372" fill="none" xmlns="http://www.w3.org/2000/svg">
<g clip-path="url(#clip0_1_2)">
<path d="M567 0H0V372H567V0Z" fill="white"/>
<path d="M280 217C334.676 217 379 172.676 379 118C379 63.3238 334.676 19 280 19C225.324 19 181 63.3238 181 118C181 172.676 225.324 217 280 217Z" stroke="#B7B7B7" stroke-width="3" stroke-linecap="round" stroke-linejoin="round"/>
<path d="M280 65L329 93V149L280 177L231 149V93L280 65Z" stroke="#B7B7B7" stroke-width="3" stroke-linecap="round" stroke-linejoin="round"/>
<path d="M214 112H346" stroke="#9FD2F3" stroke-width="7" stroke-linecap="round"/>
<path d="M81.9268 303.714V310H51.0566V303.714H81.9268ZM52.6182 251.703V310H44.8906V251.703H52.6182ZM77.8428 276.768V283.054H51.0566V276.768H77.8428ZM81.5264 251.703V258.029H51.0566V251.703H81.5264ZM115.6 298.509C115.6 297.441 115.359 296.453 114.879 295.546C114.425 294.612 113.478 293.771 112.036 293.023C110.621 292.249 108.486 291.582 105.63 291.021C103.228 290.514 101.052 289.914 99.1035 289.22C97.1816 288.526 95.54 287.685 94.1787 286.697C92.8441 285.71 91.8164 284.549 91.0957 283.214C90.375 281.879 90.0146 280.318 90.0146 278.529C90.0146 276.821 90.3883 275.206 91.1357 273.685C91.9098 272.163 92.9909 270.815 94.3789 269.641C95.7936 268.466 97.4886 267.545 99.4639 266.878C101.439 266.211 103.641 265.877 106.07 265.877C109.54 265.877 112.503 266.491 114.959 267.719C117.415 268.947 119.297 270.588 120.604 272.644C121.912 274.672 122.566 276.928 122.566 279.41H115.159C115.159 278.209 114.799 277.048 114.078 275.927C113.384 274.779 112.356 273.831 110.995 273.084C109.66 272.337 108.019 271.963 106.07 271.963C104.015 271.963 102.347 272.283 101.065 272.924C99.8109 273.538 98.89 274.325 98.3027 275.286C97.7422 276.247 97.4619 277.261 97.4619 278.329C97.4619 279.13 97.5954 279.851 97.8623 280.491C98.1559 281.105 98.6631 281.679 99.3838 282.213C100.104 282.72 101.119 283.201 102.427 283.654C103.735 284.108 105.403 284.562 107.432 285.016C110.982 285.816 113.905 286.777 116.2 287.898C118.496 289.02 120.204 290.394 121.325 292.022C122.446 293.651 123.007 295.626 123.007 297.948C123.007 299.843 122.606 301.578 121.806 303.153C121.032 304.728 119.897 306.09 118.402 307.237C116.934 308.358 115.173 309.239 113.117 309.88C111.089 310.494 108.806 310.801 106.271 310.801C102.453 310.801 99.2236 310.12 96.5811 308.759C93.9385 307.397 91.9365 305.636 90.5752 303.474C89.2139 301.312 88.5332 299.029 88.5332 296.627H95.9805C96.0872 298.656 96.6745 300.271 97.7422 301.472C98.8099 302.646 100.118 303.487 101.666 303.994C103.214 304.475 104.749 304.715 106.271 304.715C108.299 304.715 109.994 304.448 111.355 303.914C112.743 303.38 113.798 302.646 114.519 301.712C115.239 300.778 115.6 299.71 115.6 298.509ZM150.874 266.678V272.363H127.451V266.678H150.874ZM135.379 256.147H142.786V299.27C142.786 300.738 143.013 301.845 143.467 302.593C143.921 303.34 144.508 303.834 145.229 304.074C145.949 304.314 146.723 304.435 147.551 304.435C148.165 304.435 148.805 304.381 149.473 304.274C150.167 304.141 150.687 304.034 151.034 303.954L151.074 310C150.487 310.187 149.713 310.36 148.752 310.521C147.818 310.707 146.683 310.801 145.349 310.801C143.534 310.801 141.865 310.44 140.344 309.72C138.822 308.999 137.608 307.798 136.7 306.116C135.819 304.408 135.379 302.112 135.379 299.229V256.147ZM177.54 310.801C174.524 310.801 171.788 310.294 169.332 309.279C166.903 308.238 164.808 306.784 163.046 304.915C161.311 303.047 159.976 300.831 159.042 298.269C158.108 295.706 157.641 292.903 157.641 289.86V288.179C157.641 284.655 158.161 281.519 159.202 278.77C160.243 275.993 161.658 273.645 163.446 271.723C165.235 269.801 167.263 268.346 169.532 267.358C171.801 266.371 174.15 265.877 176.579 265.877C179.675 265.877 182.345 266.411 184.587 267.479C186.856 268.546 188.711 270.041 190.152 271.963C191.594 273.858 192.661 276.1 193.355 278.689C194.049 281.252 194.396 284.055 194.396 287.098V290.421H162.045V284.375H186.989V283.814C186.882 281.893 186.482 280.024 185.788 278.209C185.121 276.394 184.053 274.899 182.585 273.725C181.117 272.55 179.115 271.963 176.579 271.963C174.897 271.963 173.349 272.323 171.935 273.044C170.52 273.738 169.305 274.779 168.291 276.167C167.277 277.555 166.489 279.25 165.929 281.252C165.368 283.254 165.088 285.563 165.088 288.179V289.86C165.088 291.916 165.368 293.851 165.929 295.666C166.516 297.454 167.357 299.029 168.451 300.391C169.572 301.752 170.92 302.82 172.495 303.594C174.097 304.368 175.912 304.755 177.94 304.755C180.556 304.755 182.772 304.221 184.587 303.153C186.402 302.086 187.99 300.658 189.352 298.869L193.836 302.433C192.902 303.847 191.714 305.195 190.272 306.477C188.831 307.758 187.056 308.799 184.947 309.6C182.865 310.4 180.396 310.801 177.54 310.801ZM221.183 266.678V272.363H197.76V266.678H221.183ZM205.688 256.147H213.095V299.27C213.095 300.738 213.322 301.845 213.775 302.593C214.229 303.34 214.816 303.834 215.537 304.074C216.258 304.314 217.032 304.435 217.859 304.435C218.473 304.435 219.114 304.381 219.781 304.274C220.475 304.141 220.996 304.034 221.343 303.954L221.383 310C220.796 310.187 220.021 310.36 219.061 310.521C218.126 310.707 216.992 310.801 215.657 310.801C213.842 310.801 212.174 310.44 210.652 309.72C209.131 308.999 207.916 307.798 207.009 306.116C206.128 304.408 205.688 302.112 205.688 299.229V256.147ZM237.919 266.678V310H230.472V266.678H237.919ZM229.911 255.187C229.911 253.985 230.271 252.971 230.992 252.144C231.74 251.316 232.834 250.902 234.275 250.902C235.69 250.902 236.771 251.316 237.519 252.144C238.293 252.971 238.68 253.985 238.68 255.187C238.68 256.334 238.293 257.322 237.519 258.149C236.771 258.95 235.69 259.351 234.275 259.351C232.834 259.351 231.74 258.95 230.992 258.149C230.271 257.322 229.911 256.334 229.911 255.187ZM282.002 295.266C282.002 293.904 281.788 292.703 281.361 291.662C280.961 290.594 280.24 289.633 279.199 288.779C278.185 287.925 276.77 287.111 274.955 286.337C273.167 285.563 270.898 284.775 268.148 283.975C265.266 283.12 262.663 282.173 260.341 281.132C258.019 280.064 256.03 278.85 254.375 277.488C252.72 276.127 251.452 274.565 250.571 272.804C249.69 271.042 249.25 269.027 249.25 266.758C249.25 264.489 249.717 262.394 250.651 260.472C251.586 258.55 252.92 256.882 254.655 255.467C256.417 254.025 258.512 252.904 260.941 252.104C263.37 251.303 266.08 250.902 269.069 250.902C273.447 250.902 277.157 251.743 280.2 253.425C283.27 255.08 285.605 257.255 287.207 259.951C288.809 262.62 289.609 265.477 289.609 268.52H281.922C281.922 266.331 281.455 264.396 280.521 262.714C279.586 261.006 278.172 259.671 276.276 258.71C274.381 257.722 271.979 257.229 269.069 257.229C266.32 257.229 264.051 257.642 262.263 258.47C260.474 259.297 259.14 260.418 258.259 261.833C257.405 263.248 256.978 264.863 256.978 266.678C256.978 267.906 257.231 269.027 257.738 270.041C258.272 271.029 259.086 271.95 260.181 272.804C261.302 273.658 262.716 274.445 264.425 275.166C266.16 275.887 268.229 276.581 270.631 277.248C273.941 278.182 276.797 279.223 279.199 280.371C281.602 281.519 283.577 282.813 285.125 284.255C286.7 285.67 287.861 287.285 288.608 289.1C289.382 290.888 289.77 292.917 289.77 295.186C289.77 297.561 289.289 299.71 288.328 301.632C287.367 303.554 285.993 305.195 284.204 306.557C282.416 307.918 280.267 308.972 277.758 309.72C275.275 310.44 272.499 310.801 269.43 310.801C266.734 310.801 264.078 310.427 261.462 309.68C258.873 308.932 256.51 307.811 254.375 306.316C252.266 304.822 250.571 302.98 249.29 300.791C248.035 298.576 247.408 296.013 247.408 293.104H255.096C255.096 295.105 255.483 296.827 256.257 298.269C257.031 299.683 258.085 300.858 259.42 301.792C260.781 302.726 262.316 303.42 264.024 303.874C265.759 304.301 267.561 304.515 269.43 304.515C272.126 304.515 274.408 304.141 276.276 303.394C278.145 302.646 279.56 301.578 280.521 300.19C281.508 298.802 282.002 297.161 282.002 295.266ZM315.835 304.715C317.597 304.715 319.225 304.354 320.72 303.634C322.215 302.913 323.442 301.925 324.403 300.671C325.364 299.39 325.911 297.935 326.045 296.307H333.092C332.958 298.869 332.091 301.258 330.489 303.474C328.914 305.662 326.846 307.438 324.283 308.799C321.721 310.133 318.905 310.801 315.835 310.801C312.578 310.801 309.736 310.227 307.307 309.079C304.904 307.931 302.902 306.356 301.301 304.354C299.726 302.353 298.538 300.057 297.737 297.468C296.963 294.852 296.576 292.089 296.576 289.18V287.498C296.576 284.589 296.963 281.839 297.737 279.25C298.538 276.634 299.726 274.325 301.301 272.323C302.902 270.321 304.904 268.746 307.307 267.599C309.736 266.451 312.578 265.877 315.835 265.877C319.225 265.877 322.188 266.571 324.724 267.959C327.259 269.32 329.248 271.189 330.689 273.564C332.158 275.913 332.958 278.583 333.092 281.572H326.045C325.911 279.784 325.404 278.169 324.523 276.728C323.669 275.286 322.495 274.138 321 273.284C319.532 272.403 317.81 271.963 315.835 271.963C313.566 271.963 311.658 272.417 310.109 273.324C308.588 274.205 307.373 275.406 306.466 276.928C305.585 278.423 304.944 280.091 304.544 281.933C304.17 283.748 303.983 285.603 303.983 287.498V289.18C303.983 291.075 304.17 292.943 304.544 294.785C304.918 296.627 305.545 298.295 306.426 299.79C307.333 301.285 308.548 302.486 310.069 303.394C311.618 304.274 313.539 304.715 315.835 304.715ZM366.965 302.593V280.291C366.965 278.583 366.618 277.101 365.924 275.847C365.257 274.565 364.242 273.578 362.881 272.884C361.52 272.19 359.838 271.843 357.836 271.843C355.967 271.843 354.326 272.163 352.911 272.804C351.523 273.444 350.429 274.285 349.628 275.326C348.854 276.367 348.467 277.488 348.467 278.689H341.06C341.06 277.141 341.46 275.606 342.261 274.085C343.062 272.563 344.209 271.189 345.704 269.961C347.226 268.706 349.041 267.719 351.149 266.998C353.285 266.251 355.66 265.877 358.276 265.877C361.426 265.877 364.202 266.411 366.604 267.479C369.034 268.546 370.929 270.161 372.29 272.323C373.678 274.459 374.372 277.141 374.372 280.371V300.551C374.372 301.992 374.492 303.527 374.732 305.155C374.999 306.784 375.386 308.185 375.894 309.359V310H368.166C367.792 309.146 367.499 308.011 367.285 306.597C367.072 305.155 366.965 303.821 366.965 302.593ZM368.246 283.734L368.326 288.939H360.839C358.73 288.939 356.848 289.113 355.193 289.46C353.538 289.78 352.15 290.274 351.029 290.941C349.908 291.609 349.054 292.45 348.467 293.464C347.88 294.451 347.586 295.613 347.586 296.947C347.586 298.309 347.893 299.55 348.507 300.671C349.121 301.792 350.042 302.686 351.27 303.354C352.524 303.994 354.059 304.314 355.874 304.314C358.143 304.314 360.145 303.834 361.88 302.873C363.615 301.912 364.99 300.738 366.004 299.35C367.045 297.962 367.605 296.614 367.686 295.306L370.849 298.869C370.662 299.99 370.155 301.231 369.327 302.593C368.5 303.954 367.392 305.262 366.004 306.517C364.643 307.744 363.014 308.772 361.119 309.6C359.251 310.4 357.142 310.801 354.793 310.801C351.857 310.801 349.281 310.227 347.065 309.079C344.877 307.931 343.168 306.396 341.94 304.475C340.739 302.526 340.139 300.351 340.139 297.948C340.139 295.626 340.592 293.584 341.5 291.822C342.408 290.034 343.715 288.552 345.424 287.378C347.132 286.177 349.188 285.269 351.59 284.655C353.992 284.041 356.675 283.734 359.638 283.734H368.246ZM393.431 275.927V310H386.023V266.678H393.03L393.431 275.927ZM391.669 286.697L388.586 286.577C388.613 283.614 389.053 280.878 389.907 278.369C390.761 275.833 391.963 273.631 393.511 271.763C395.059 269.894 396.901 268.453 399.036 267.438C401.198 266.397 403.587 265.877 406.203 265.877C408.339 265.877 410.26 266.171 411.969 266.758C413.677 267.318 415.132 268.226 416.333 269.48C417.561 270.735 418.495 272.363 419.136 274.365C419.776 276.34 420.097 278.756 420.097 281.612V310H412.649V281.532C412.649 279.263 412.316 277.448 411.648 276.087C410.981 274.699 410.007 273.698 408.726 273.084C407.444 272.443 405.869 272.123 404.001 272.123C402.159 272.123 400.478 272.51 398.956 273.284C397.461 274.058 396.167 275.126 395.072 276.487C394.005 277.849 393.164 279.41 392.55 281.172C391.963 282.907 391.669 284.749 391.669 286.697ZM474.39 256.868L455.091 310H447.203L469.425 251.703H474.51L474.39 256.868ZM490.565 310L471.227 256.868L471.106 251.703H476.191L498.493 310H490.565ZM489.564 288.419V294.745H456.812V288.419H489.564ZM514.589 251.703V310H506.861V251.703H514.589Z" fill="#8F8F8F"/>
</g>
<defs>
<clipPath id="clip0_1_2">
<rect width="567" height="372" fill="white"/>
</clipPath>
</defs>
</svg>
